<svg width="110" height="110" viewBox="0 0 110 110" fill="none" xmlns="http://www.w3.org/2000/svg">
<path d="M105.879 51.9906C105.879 49.0307 109.647 45.7095 109.243 42.9218C108.839 40.134 103.793 38.3787 102.935 35.7631C102.077 33.1474 104.617 28.6044 103.44 26.1608C102.262 23.7172 97.1316 23.5279 95.2476 21.2564C93.3636 18.9849 94.9785 14.0977 92.9094 12.0499C90.8404 10.0021 86.4332 11.5164 84.0446 10.1226L78.9981 17.4533V17.6254C84.1705 21.4542 88.4095 26.4522 91.3854 32.2305C94.3613 38.0089 95.9939 44.4117 96.156 50.9409C96.3535 56.555 95.4607 62.1535 93.5292 67.4123C91.5978 72.6711 88.6661 77.4859 84.9038 81.578C81.1415 85.6702 76.6232 88.9584 71.6105 91.2524C66.5978 93.5464 61.1901 94.8007 55.7005 94.9427H54.0183C45.3257 94.6721 36.9327 91.6313 30.0111 86.2449C23.0895 80.8585 17.9848 73.3954 15.4099 64.8977C12.8349 56.3999 12.9181 47.2917 15.6479 38.8446C18.3776 30.3976 23.6178 23.0334 30.6365 17.7803V17.591L25.6742 10.3291C23.2856 11.7229 18.6765 10.157 16.7925 12.2564C14.9085 14.3558 16.1028 19.243 14.4039 21.5145C12.7049 23.786 7.67531 23.7688 6.21184 26.4017C5.01752 28.8453 7.57438 33.199 6.71649 36.004C5.85859 38.809 0.913095 40.1168 0.408452 43.025C-0.0961901 45.9332 3.77274 49.134 3.77274 52.0938C3.77274 55.0537 -0.331689 58.0307 0.0215606 60.8357C0.37481 63.6407 5.06799 65.5508 5.99317 68.3386C6.91834 71.1263 3.77274 75.3252 5.13527 77.9408C6.49781 80.5565 11.4433 80.9179 12.9909 83.1034C14.5384 85.2888 16.3552 94.1167 16.7421 94.633C18.6261 96.7324 23.5716 94.9771 25.792 96.7324C28.0124 98.4877 28.3488 103.719 30.8384 104.769C31.328 104.964 31.8445 105.08 32.3692 105.113C34.4214 105.113 36.9782 103.719 39.0977 103.719C39.5036 103.677 39.9132 103.736 40.292 103.891C43.0339 104.769 44.9011 109.484 47.643 110H47.9794C50.5363 110 53.2614 106.163 56.0033 106.163C58.7451 106.163 61.8066 109.604 64.414 109.604H64.6999C67.61 109.071 69.1408 104.012 71.6976 103.134C72.0799 102.993 72.4865 102.934 72.892 102.962C74.9442 102.962 77.501 104.012 79.6205 104.012C80.1452 103.979 80.6617 103.863 81.1513 103.667C83.7081 102.274 83.7081 97.197 85.9286 95.2869C88.149 93.3768 92.9263 94.9255 94.9785 92.8433C97.0307 90.7611 95.3149 85.8567 97.0307 83.5852C98.7465 81.3137 103.86 80.9695 104.886 78.4227C106.249 75.807 103.204 71.5393 104.028 68.8204C104.853 66.1015 109.495 64.1053 110 61.3175C109.983 57.9275 106.064 54.9676 105.879 51.9906Z" fill="#D8E5FB"/>
<path d="M54.6069 27.6925L51.0239 24.0959C48.0129 20.9984 44.9682 17.9181 41.9571 14.8034C41.0993 13.9782 40.4174 12.9806 39.9542 11.8731C39.4911 10.7655 39.2567 9.57204 39.2657 8.36746C39.265 6.53415 39.8568 4.75204 40.9491 3.29856C42.0413 1.84508 43.5726 0.801807 45.3046 0.331143C46.7031 -0.0870241 48.1863 -0.109422 49.5963 0.266333C51.0063 0.642088 52.2903 1.40193 53.3116 2.46498C53.7321 2.87798 54.1022 3.34261 54.5564 3.84165L55.7003 2.58544C57.2197 0.972844 59.303 0.0434327 61.492 0.00148385C63.6811 -0.040465 65.7969 0.808482 67.3743 2.36173C68.1273 3.10179 68.7329 3.98424 69.1574 4.9602C69.8164 6.38235 70.0636 7.96777 69.8698 9.52908C69.6761 11.0904 69.0495 12.5623 68.064 13.7709C67.8107 14.1158 67.5294 14.4382 67.2229 14.7346L54.9096 27.3655L54.6069 27.6925Z" fill="#6599FF"/>
<path d="M33.0454 52.7759H34.7254V49.2619C35.1454 49.3179 35.5654 49.3599 35.9854 49.3599C38.0434 49.3599 39.8494 48.3099 39.8494 46.1119C39.8494 43.7879 38.1274 42.8359 36.0554 42.8359H33.0454V52.7759ZM34.7254 44.3199H36.0274C37.1894 44.3199 38.1134 44.8239 38.1134 46.0979C38.1134 47.4279 37.1054 47.8759 35.9154 47.8759C35.5234 47.8759 35.1174 47.8339 34.7254 47.7779V44.3199ZM41.1502 45.4539V52.7759H42.7602V49.0659C42.7602 47.9179 43.2922 46.9519 44.5522 46.9519C44.7762 46.9519 45.0002 46.9659 45.2102 47.0499L45.3922 45.4819C45.1542 45.3839 44.8882 45.3559 44.6362 45.3559C43.7402 45.3559 43.0542 45.8459 42.6902 46.6579L42.6202 45.4539H41.1502ZM48.188 52.7759V45.4539H46.578V52.7759H48.188ZM46.536 43.8999C46.62 44.0539 46.732 44.1659 46.886 44.2499C47.04 44.3479 47.194 44.3899 47.376 44.3899C47.558 44.3899 47.712 44.3479 47.866 44.2499C48.02 44.1659 48.132 44.0539 48.23 43.8999C48.314 43.7459 48.356 43.5919 48.356 43.4099C48.356 43.2279 48.314 43.0739 48.23 42.9199C48.132 42.7659 48.02 42.6539 47.866 42.5559C47.712 42.4719 47.558 42.4299 47.376 42.4299C47.194 42.4299 47.04 42.4719 46.886 42.5559C46.732 42.6539 46.62 42.7659 46.536 42.9199C46.438 43.0739 46.396 43.2279 46.396 43.4099C46.396 43.5919 46.438 43.7459 46.536 43.8999ZM49.2556 45.4539L52.0556 52.7759H53.6936L56.4936 45.4539H54.7856L52.8956 51.0959L51.0196 45.4539H49.2556ZM56.974 50.6899C56.974 52.1459 58.22 52.9859 59.564 52.9859C60.46 52.9859 61.356 52.6219 61.818 51.8099L61.874 52.7759H63.344V48.3099C63.344 46.4619 62.056 45.2439 60.264 45.2439C58.962 45.2439 57.604 45.9439 57.24 47.2599L58.724 47.5959C58.976 46.9659 59.564 46.5879 60.236 46.5879C61.23 46.5879 61.748 47.3159 61.748 48.2399V48.7019C61.174 48.4639 60.572 48.3519 59.956 48.3519C58.486 48.3519 56.974 49.0519 56.974 50.6899ZM58.598 50.6199C58.598 49.7659 59.508 49.4859 60.208 49.4859C60.474 49.4859 60.74 49.5139 61.006 49.5699C61.258 49.6399 61.51 49.7239 61.748 49.8219V49.9899C61.748 51.0119 60.922 51.6979 59.942 51.6979C59.284 51.6979 58.598 51.3479 58.598 50.6199ZM64.2136 45.4539V46.7559H65.5016V50.5219C65.5016 52.0339 66.3276 52.9859 67.8676 52.9859C68.1896 52.9859 68.4976 52.9439 68.7916 52.8599C69.0716 52.7619 69.3236 52.6499 69.5336 52.4959L69.1696 51.2779C69.0016 51.3759 68.8196 51.4459 68.6236 51.4879C68.4276 51.5439 68.2456 51.5719 68.0776 51.5719C67.3636 51.5719 67.1116 50.9839 67.1116 50.3539V46.7559H69.2396V45.4539H67.1116V42.9759H65.5016V45.4539H64.2136ZM70.3458 49.1079C70.3458 51.3199 71.8718 52.9859 74.0698 52.9859C75.4138 52.9859 76.7158 52.3699 77.2758 51.1099L75.8618 50.5639C75.4278 51.2499 74.8398 51.5859 74.0698 51.5859C72.8378 51.5859 72.1238 50.6339 72.0118 49.4999H77.4298V49.0239C77.4298 46.8819 76.1138 45.2439 73.9438 45.2439C71.7738 45.2439 70.3458 47.0639 70.3458 49.1079ZM73.9438 46.5459C75.0218 46.5459 75.5958 47.3859 75.7498 48.3519H72.0538C72.2498 47.3719 72.8938 46.5459 73.9438 46.5459ZM33.8044 65.5359C34.2384 67.1179 35.7364 67.9859 37.3044 67.9859C39.1944 67.9859 40.8044 66.7959 40.8044 64.8499C40.8044 63.3519 39.8524 62.3859 37.9484 61.9519L37.4304 61.8399C36.6884 61.6719 35.7784 61.3639 35.7784 60.4539C35.7784 59.5999 36.5484 59.1239 37.3184 59.1239C38.1864 59.1239 38.7604 59.6279 39.0544 60.4259L40.6504 60.0339C40.2584 58.4939 38.8864 57.6259 37.3604 57.6259C35.5964 57.6259 34.0564 58.7599 34.0564 60.5799C34.0564 62.3019 35.4284 63.1279 36.9544 63.4499L37.4724 63.5619C38.2424 63.7439 39.0684 64.0519 39.0684 64.9899C39.0684 65.9559 38.2004 66.4879 37.3184 66.4879C36.3944 66.4879 35.7224 66.0119 35.4144 65.1439L33.8044 65.5359ZM42.0519 64.1079C42.0519 66.3199 43.5779 67.9859 45.7759 67.9859C47.1199 67.9859 48.4219 67.3699 48.9819 66.1099L47.5679 65.5639C47.1339 66.2499 46.5459 66.5859 45.7759 66.5859C44.5439 66.5859 43.8299 65.6339 43.7179 64.4999H49.1359V64.0239C49.1359 61.8819 47.8199 60.2439 45.6499 60.2439C43.4799 60.2439 42.0519 62.0639 42.0519 64.1079ZM45.6499 61.5459C46.7279 61.5459 47.3019 62.3859 47.4559 63.3519H43.7599C43.9559 62.3719 44.5999 61.5459 45.6499 61.5459ZM50.5086 67.7759H52.1186V57.3599H50.5086V67.7759ZM53.8582 67.7759H55.4682V57.3599H53.8582V67.7759ZM56.8858 64.1079C56.8858 66.3199 58.4118 67.9859 60.6098 67.9859C61.9538 67.9859 63.2558 67.3699 63.8158 66.1099L62.4018 65.5639C61.9678 66.2499 61.3798 66.5859 60.6098 66.5859C59.3778 66.5859 58.6638 65.6339 58.5518 64.4999H63.9698V64.0239C63.9698 61.8819 62.6538 60.2439 60.4838 60.2439C58.3138 60.2439 56.8858 62.0639 56.8858 64.1079ZM60.4838 61.5459C61.5618 61.5459 62.1358 62.3859 62.2898 63.3519H58.5938C58.7898 62.3719 59.4338 61.5459 60.4838 61.5459ZM65.3426 60.4539V67.7759H66.9526V64.0659C66.9526 62.9179 67.4846 61.9519 68.7446 61.9519C68.9686 61.9519 69.1926 61.9659 69.4026 62.0499L69.5846 60.4819C69.3466 60.3839 69.0806 60.3559 68.8286 60.3559C67.9326 60.3559 67.2466 60.8459 66.8826 61.6579L66.8126 60.4539H65.3426ZM70.3083 66.0259C70.7143 67.3279 71.9743 67.9859 73.2763 67.9859C74.7463 67.9859 76.1463 67.1459 76.1463 65.5779C76.1463 64.2339 75.0123 63.5759 73.8223 63.3799L73.3603 63.2959C72.8983 63.2119 72.1003 63.0299 72.1003 62.4279C72.1003 61.8259 72.7163 61.5599 73.2343 61.5599C73.8923 61.5599 74.3543 61.9099 74.5923 62.5259L76.0343 62.1759C75.6703 60.9019 74.5223 60.2439 73.2483 60.2439C71.8343 60.2439 70.5183 61.0419 70.5183 62.5539C70.5183 63.9259 71.6943 64.4999 72.8843 64.7099L73.3463 64.7939C73.8643 64.8779 74.5363 65.1019 74.5363 65.7319C74.5363 66.3899 73.8503 66.6559 73.2903 66.6559C72.5903 66.6559 72.0163 66.3059 71.7643 65.6479L70.3083 66.0259Z" fill="#253A4A"/>
</svg>
