<svg width="110" height="110" viewBox="0 0 110 110" fill="none" xmlns="http://www.w3.org/2000/svg">
<path d="M105.879 53.6479C105.879 50.7726 109.647 47.5463 109.243 44.8382C108.839 42.1301 103.793 40.425 102.935 37.884C102.077 35.3431 104.617 30.9299 103.44 28.5561C102.262 26.1823 97.1316 25.9984 95.2476 23.7918C93.3636 21.5852 94.9785 16.8376 92.9094 14.8483C90.8404 12.8591 86.4332 14.3301 84.0446 12.9761L78.9981 20.0974V20.2646C84.1705 23.9839 88.4095 28.8391 91.3854 34.4524C94.3613 40.0656 95.9939 46.2856 96.156 52.6282C96.3535 58.0819 95.4607 63.5204 93.5292 68.629C91.5978 73.7376 88.6661 78.4148 84.9038 82.39C81.1415 86.3652 76.6232 89.5595 71.6105 91.788C66.5978 94.0165 61.1901 95.235 55.7005 95.3729H54.0183C45.3257 95.11 36.9327 92.156 30.0111 86.9235C23.0895 81.6911 17.9848 74.4412 15.4099 66.1862C12.8349 57.9313 12.9181 49.0832 15.6479 40.8775C18.3776 32.6718 23.6178 25.518 30.6365 20.415V20.2311L25.6742 13.1767C23.2856 14.5307 18.6765 13.0095 16.7925 15.0489C14.9085 17.0884 16.1028 21.8359 14.4039 24.0426C12.7049 26.2492 7.67531 26.2324 6.21184 28.7901C5.01752 31.1639 7.57438 35.3932 6.71649 38.1181C5.85859 40.8429 0.913095 42.1133 0.408452 44.9385C-0.0961901 47.7636 3.77274 50.8729 3.77274 53.7482C3.77274 56.6235 -0.331689 59.5155 0.0215606 62.2403C0.37481 64.9651 5.06799 66.8207 5.99317 69.5288C6.91834 72.2369 3.77274 76.3158 5.13527 78.8568C6.49781 81.3977 11.4433 81.7487 12.9909 83.8718C14.5384 85.9948 16.3552 94.5705 16.7421 95.072C18.6261 97.1114 23.5716 95.4063 25.792 97.1114C28.0124 98.8165 28.3488 103.898 30.8384 104.918C31.328 105.108 31.8445 105.221 32.3692 105.252C34.4214 105.252 36.9782 103.898 39.0977 103.898C39.5036 103.858 39.9132 103.915 40.292 104.066C43.0339 104.918 44.9011 109.499 47.643 110H47.9794C50.5363 110 53.2614 106.272 56.0033 106.272C58.7451 106.272 61.8066 109.616 64.414 109.616H64.6999C67.61 109.097 69.1408 104.183 71.6976 103.33C72.0799 103.193 72.4865 103.136 72.892 103.163C74.9442 103.163 77.501 104.183 79.6205 104.183C80.1452 104.151 80.6617 104.038 81.1513 103.848C83.7081 102.494 83.7081 97.5628 85.9286 95.7072C88.149 93.8517 92.9263 95.3562 94.9785 93.3334C97.0307 91.3107 95.3149 86.5464 97.0307 84.3398C98.7465 82.1332 103.86 81.7989 104.886 79.3248C106.249 76.7839 103.204 72.6381 104.028 69.9969C104.853 67.3556 109.495 65.4165 110 62.7084C109.983 59.4152 106.064 56.5399 105.879 53.6479Z" fill="#D8E5FB"/>
<path d="M25.7788 42.8359V52.7759H31.9388V51.3059H27.4588V48.3799H31.3788V46.9099H27.4588V44.3059H31.7988V42.8359H25.7788ZM32.5964 45.4539L35.3964 52.7759H37.0344L39.8344 45.4539H38.1264L36.2364 51.0959L34.3604 45.4539H32.5964ZM40.3565 49.1079C40.3565 51.3199 41.8825 52.9859 44.0805 52.9859C45.4245 52.9859 46.7265 52.3699 47.2865 51.1099L45.8725 50.5639C45.4385 51.2499 44.8505 51.5859 44.0805 51.5859C42.8485 51.5859 42.1345 50.6339 42.0225 49.4999H47.4405V49.0239C47.4405 46.8819 46.1245 45.2439 43.9545 45.2439C41.7845 45.2439 40.3565 47.0639 40.3565 49.1079ZM43.9545 46.5459C45.0325 46.5459 45.6065 47.3859 45.7605 48.3519H42.0645C42.2605 47.3719 42.9045 46.5459 43.9545 46.5459ZM48.8133 45.4539V52.7759H50.4233V49.0659C50.4233 47.9179 50.9553 46.9519 52.2153 46.9519C52.4393 46.9519 52.6633 46.9659 52.8733 47.0499L53.0553 45.4819C52.8173 45.3839 52.5513 45.3559 52.2993 45.3559C51.4033 45.3559 50.7173 45.8459 50.3533 46.6579L50.2833 45.4539H48.8133ZM53.7605 45.4539L56.7425 52.7059L56.5185 53.2799C56.2805 53.8679 55.9305 54.2879 55.2585 54.2879C55.1325 54.2879 55.0065 54.2739 54.8805 54.2459C54.7545 54.2039 54.6285 54.1619 54.5305 54.1199L54.1805 55.3939C54.5725 55.6039 54.9785 55.6879 55.4125 55.6879C56.7425 55.6879 57.4425 54.8199 57.8905 53.6579L60.9985 45.4539H59.2905L57.4985 50.9279L55.5245 45.4539H53.7605ZM64.7198 49.1639C64.7198 51.2779 66.2178 52.9859 68.3458 52.9859C69.7458 52.9859 71.1738 52.1739 71.5658 50.7739L70.0538 50.4239C69.7458 51.1239 69.1018 51.5299 68.3458 51.5299C67.0298 51.5299 66.3718 50.3259 66.3718 49.1499C66.3718 47.9879 67.0578 46.6999 68.3458 46.6999C69.1018 46.6999 69.6758 47.1479 69.9698 47.8199L71.4958 47.4559C71.0898 46.0279 69.8018 45.2439 68.3738 45.2439C66.1758 45.2439 64.7198 47.0919 64.7198 49.1639ZM72.5395 50.6899C72.5395 52.1459 73.7855 52.9859 75.1295 52.9859C76.0255 52.9859 76.9215 52.6219 77.3835 51.8099L77.4395 52.7759H78.9095V48.3099C78.9095 46.4619 77.6215 45.2439 75.8295 45.2439C74.5275 45.2439 73.1695 45.9439 72.8055 47.2599L74.2895 47.5959C74.5415 46.9659 75.1295 46.5879 75.8015 46.5879C76.7955 46.5879 77.3135 47.3159 77.3135 48.2399V48.7019C76.7395 48.4639 76.1375 48.3519 75.5215 48.3519C74.0515 48.3519 72.5395 49.0519 72.5395 50.6899ZM74.1635 50.6199C74.1635 49.7659 75.0735 49.4859 75.7735 49.4859C76.0395 49.4859 76.3055 49.5139 76.5715 49.5699C76.8235 49.6399 77.0755 49.7239 77.3135 49.8219V49.9899C77.3135 51.0119 76.4875 51.6979 75.5075 51.6979C74.8495 51.6979 74.1635 51.3479 74.1635 50.6199ZM80.6414 45.4539V52.7759H82.2514V49.0659C82.2514 47.9179 82.7834 46.9519 84.0434 46.9519C84.2674 46.9519 84.4914 46.9659 84.7014 47.0499L84.8834 45.4819C84.6454 45.3839 84.3794 45.3559 84.1274 45.3559C83.2314 45.3559 82.5454 45.8459 82.1814 46.6579L82.1114 45.4539H80.6414ZM24.4536 67.7759V60.4539H22.8436V67.7759H24.4536ZM22.8016 58.8999C22.8856 59.0539 22.9976 59.1659 23.1516 59.2499C23.3056 59.3479 23.4596 59.3899 23.6416 59.3899C23.8236 59.3899 23.9776 59.3479 24.1316 59.2499C24.2856 59.1659 24.3976 59.0539 24.4956 58.8999C24.5796 58.7459 24.6216 58.5919 24.6216 58.4099C24.6216 58.2279 24.5796 58.0739 24.4956 57.9199C24.3976 57.7659 24.2856 57.6539 24.1316 57.5559C23.9776 57.4719 23.8236 57.4299 23.6416 57.4299C23.4596 57.4299 23.3056 57.4719 23.1516 57.5559C22.9976 57.6539 22.8856 57.7659 22.8016 57.9199C22.7036 58.0739 22.6616 58.2279 22.6616 58.4099C22.6616 58.5919 22.7036 58.7459 22.8016 58.8999ZM26.1932 60.4539V67.7759H27.8032V63.5199C27.8032 62.4839 28.5172 61.6999 29.5532 61.6999C30.6732 61.6999 31.0652 62.6099 31.0652 63.6039V67.7759H32.6752V63.4219C32.6752 61.6999 31.7792 60.2439 29.9592 60.2439C29.0492 60.2439 28.1672 60.6499 27.7192 61.4619L27.6632 60.4539H26.1932ZM33.948 66.0259C34.354 67.3279 35.614 67.9859 36.916 67.9859C38.386 67.9859 39.786 67.1459 39.786 65.5779C39.786 64.2339 38.652 63.5759 37.462 63.3799L37 63.2959C36.538 63.2119 35.74 63.0299 35.74 62.4279C35.74 61.8259 36.356 61.5599 36.874 61.5599C37.532 61.5599 37.994 61.9099 38.232 62.5259L39.674 62.1759C39.31 60.9019 38.162 60.2439 36.888 60.2439C35.474 60.2439 34.158 61.0419 34.158 62.5539C34.158 63.9259 35.334 64.4999 36.524 64.7099L36.986 64.7939C37.504 64.8779 38.176 65.1019 38.176 65.7319C38.176 66.3899 37.49 66.6559 36.93 66.6559C36.23 66.6559 35.656 66.3059 35.404 65.6479L33.948 66.0259ZM41.1092 60.4539V70.5479H42.7192V66.8099C43.2652 67.5799 44.1052 67.9859 45.0432 67.9859C47.2132 67.9859 48.5432 66.0819 48.5432 64.0799C48.5432 62.0779 47.2132 60.2439 45.1272 60.2439C44.0772 60.2439 43.1952 60.7339 42.6492 61.6299L42.5792 60.4539H41.1092ZM44.7912 61.6999C46.1492 61.6999 46.8912 62.8619 46.8912 64.1079C46.8912 65.3539 46.1212 66.5299 44.7912 66.5299C43.4612 66.5299 42.6912 65.3259 42.6912 64.1079C42.6912 62.8479 43.4612 61.6999 44.7912 61.6999ZM49.7013 64.1079C49.7013 66.3199 51.2273 67.9859 53.4253 67.9859C54.7693 67.9859 56.0713 67.3699 56.6313 66.1099L55.2173 65.5639C54.7833 66.2499 54.1953 66.5859 53.4253 66.5859C52.1933 66.5859 51.4793 65.6339 51.3673 64.4999H56.7853V64.0239C56.7853 61.8819 55.4693 60.2439 53.2993 60.2439C51.1293 60.2439 49.7013 62.0639 49.7013 64.1079ZM53.2993 61.5459C54.3773 61.5459 54.9513 62.3859 55.1053 63.3519H51.4093C51.6053 62.3719 52.2493 61.5459 53.2993 61.5459ZM57.9044 64.1639C57.9044 66.2779 59.4024 67.9859 61.5304 67.9859C62.9304 67.9859 64.3584 67.1739 64.7504 65.7739L63.2384 65.4239C62.9304 66.1239 62.2864 66.5299 61.5304 66.5299C60.2144 66.5299 59.5564 65.3259 59.5564 64.1499C59.5564 62.9879 60.2424 61.6999 61.5304 61.6999C62.2864 61.6999 62.8604 62.1479 63.1544 62.8199L64.6804 62.4559C64.2744 61.0279 62.9864 60.2439 61.5584 60.2439C59.3604 60.2439 57.9044 62.0919 57.9044 64.1639ZM65.3894 60.4539V61.7559H66.6774V65.5219C66.6774 67.0339 67.5034 67.9859 69.0434 67.9859C69.3654 67.9859 69.6734 67.9439 69.9674 67.8599C70.2474 67.7619 70.4994 67.6499 70.7094 67.4959L70.3454 66.2779C70.1774 66.3759 69.9954 66.4459 69.7994 66.4879C69.6034 66.5439 69.4214 66.5719 69.2534 66.5719C68.5394 66.5719 68.2874 65.9839 68.2874 65.3539V61.7559H70.4154V60.4539H68.2874V57.9759H66.6774V60.4539H65.3894ZM71.5216 64.1079C71.5216 66.3199 73.0476 67.9859 75.2456 67.9859C76.5896 67.9859 77.8916 67.3699 78.4516 66.1099L77.0376 65.5639C76.6036 66.2499 76.0156 66.5859 75.2456 66.5859C74.0136 66.5859 73.2996 65.6339 73.1876 64.4999H78.6056V64.0239C78.6056 61.8819 77.2896 60.2439 75.1196 60.2439C72.9496 60.2439 71.5216 62.0639 71.5216 64.1079ZM75.1196 61.5459C76.1976 61.5459 76.7716 62.3859 76.9256 63.3519H73.2296C73.4256 62.3719 74.0696 61.5459 75.1196 61.5459ZM83.1407 67.9859C84.1767 67.9859 85.0867 67.4819 85.6187 66.5999L85.6887 67.7759H87.1587V57.3599H85.5487V61.4199C85.0027 60.6499 84.1627 60.2439 83.2247 60.2439C81.0687 60.2439 79.7247 62.1479 79.7247 64.1499C79.7247 66.1379 81.0687 67.9859 83.1407 67.9859ZM81.3767 64.1219C81.3767 62.8619 82.1467 61.6999 83.4767 61.6999C84.8487 61.6999 85.5767 62.8759 85.5767 64.1219C85.5767 65.3679 84.7927 66.5299 83.4767 66.5299C82.1467 66.5299 81.3767 65.3399 81.3767 64.1219Z" fill="#253A4A"/>
<path d="M67.3988 5.43175C65.2659 4.87496 63.1822 4.15147 61.1678 3.26826C59.186 2.42736 57.2728 1.4394 55.4451 0.313016L54.9274 0L54.4192 0.322222C52.5914 1.4486 50.6783 2.43657 48.6965 3.27746C46.6787 4.158 44.5919 4.87841 42.4561 5.43175L41.7502 5.60667V13.2848C41.7502 25.6121 54.4851 30.2245 54.6074 30.2705L54.9274 30.381L55.2474 30.2705C55.3792 30.2705 68.1047 25.6213 68.1047 13.2848V5.60667L67.3988 5.43175ZM63.0973 11.554L52.5838 21.5429L46.6352 15.7152C46.3855 15.4711 46.2453 15.1399 46.2453 14.7946C46.2453 14.4493 46.3855 14.1181 46.6352 13.874C46.8848 13.6298 47.2234 13.4926 47.5764 13.4926C47.9294 13.4926 48.268 13.6298 48.5176 13.874L52.612 17.9524L61.2619 9.66667C61.3855 9.54577 61.5323 9.44987 61.6938 9.38444C61.8553 9.31901 62.0283 9.28533 62.2032 9.28533C62.378 9.28533 62.551 9.31901 62.7125 9.38444C62.874 9.44987 63.0208 9.54577 63.1444 9.66667C63.268 9.78757 63.366 9.9311 63.4329 10.0891C63.4998 10.247 63.5343 10.4163 63.5343 10.5873C63.5343 10.7583 63.4998 10.9276 63.4329 11.0856C63.366 11.2435 63.268 11.387 63.1444 11.5079L63.0973 11.554Z" fill="#6599FF"/>
</svg>
