<svg width="110" height="112" viewBox="0 0 110 112" fill="none" xmlns="http://www.w3.org/2000/svg">
<path d="M105.879 55.1061C105.879 52.2032 109.647 48.9458 109.243 46.2117C108.839 43.4775 103.793 41.756 102.935 39.1907C102.077 36.6253 104.617 32.1696 103.44 29.773C102.262 27.3764 97.1316 27.1908 95.2476 24.9629C93.3636 22.7351 94.9785 17.9419 92.9094 15.9335C90.8404 13.9251 86.4332 15.4103 84.0446 14.0432L78.9981 21.233V21.4018C84.1705 25.1569 88.4095 30.0588 91.3854 35.726C94.3613 41.3933 95.9939 47.673 96.156 54.0766C96.3535 59.5828 95.4607 65.0736 93.5292 70.2313C91.5978 75.389 88.6661 80.1112 84.9038 84.1246C81.1415 88.138 76.6232 91.363 71.6105 93.6129C66.5978 95.8629 61.1901 97.093 55.7005 97.2323H54.0183C45.3257 96.9668 36.9327 93.9845 30.0111 88.7017C23.0895 83.4189 17.9848 76.0994 15.4099 67.765C12.8349 59.4307 12.9181 50.4976 15.6479 42.2129C18.3776 33.9283 23.6178 26.7058 30.6365 21.5537V21.368L25.6742 14.2457C23.2856 15.6128 18.6765 14.077 16.7925 16.136C14.9085 18.1951 16.1028 22.9883 14.4039 25.2161C12.7049 27.4439 7.67531 27.4271 6.21184 30.0093C5.01752 32.4059 7.57438 36.6759 6.71649 39.4269C5.85859 42.178 0.913095 43.4607 0.408452 46.3129C-0.0961901 49.1652 3.77274 52.3045 3.77274 55.2074C3.77274 58.1103 -0.331689 61.0301 0.0215606 63.7811C0.37481 66.5322 5.06799 68.4056 5.99317 71.1397C6.91834 73.8739 3.77274 77.992 5.13527 80.5574C6.49781 83.1227 11.4433 83.4771 12.9909 85.6206C14.5384 87.764 16.3552 96.4222 16.7421 96.9285C18.6261 98.9876 23.5716 97.2661 25.792 98.9875C28.0124 100.709 28.3488 105.84 30.8384 106.869C31.328 107.061 31.8445 107.175 32.3692 107.207C34.4214 107.207 36.9782 105.84 39.0977 105.84C39.5036 105.799 39.9132 105.857 40.292 106.009C43.0339 106.869 44.9011 111.494 47.643 112H47.9794C50.5363 112 53.2614 108.236 56.0033 108.236C58.7451 108.236 61.8066 111.612 64.414 111.612H64.6999C67.61 111.089 69.1408 106.127 71.6976 105.266C72.0799 105.128 72.4865 105.07 72.892 105.097C74.9442 105.097 77.501 106.127 79.6205 106.127C80.1452 106.095 80.6617 105.981 81.1513 105.789C83.7081 104.422 83.7081 99.4432 85.9286 97.5698C88.149 95.6964 92.9263 97.2154 94.9785 95.1732C97.0307 93.1311 95.3149 88.321 97.0307 86.0932C98.7465 83.8653 103.86 83.5278 104.886 81.0299C106.249 78.4645 103.204 74.2789 104.028 71.6123C104.853 68.9456 109.495 66.9879 110 64.2537C109.983 60.9288 106.064 58.0259 105.879 55.1061Z" fill="#D8E5FB"/>
<path d="M45.4272 52.6619H49.9352V54.7759H51.5312V52.6619H52.6792V51.2759H51.5312V45.1159H49.7532L45.4272 51.3599V52.6619ZM47.0372 51.2759L49.9352 47.1179V51.2759H47.0372ZM53.9503 53.7679C53.9503 54.3559 54.4403 54.8319 55.0143 54.8319C55.6163 54.8319 56.0783 54.3559 56.0783 53.7679C56.0783 53.1659 55.6023 52.7039 55.0143 52.7039C54.4263 52.7039 53.9503 53.1799 53.9503 53.7679ZM60.907 54.9859C62.713 54.9859 64.477 54.0199 64.477 52.0599C64.477 50.9539 63.875 50.0719 62.825 49.7079C63.665 49.2739 64.155 48.5319 64.155 47.5799C64.155 45.8019 62.517 44.9059 60.935 44.9059C59.311 44.9059 57.673 45.8579 57.673 47.6079C57.673 48.5459 58.191 49.3159 59.031 49.7219C57.995 50.1139 57.365 51.0099 57.365 52.1159C57.365 54.0759 59.185 54.9859 60.907 54.9859ZM60.921 50.4639C61.887 50.4639 62.825 50.9539 62.825 52.0179C62.825 53.0959 61.873 53.5719 60.921 53.5719C59.955 53.5719 59.017 53.0679 59.017 52.0179C59.017 50.9399 59.983 50.4639 60.921 50.4639ZM60.921 46.3199C61.761 46.3199 62.559 46.8099 62.559 47.7059C62.559 48.6159 61.747 49.0919 60.921 49.0919C60.081 49.0919 59.283 48.6019 59.283 47.7059C59.283 46.7959 60.109 46.3199 60.921 46.3199ZM34.7407 69.7759H36.4207V66.0939C36.8547 66.1639 37.2327 66.1919 37.5547 66.1919C37.6807 66.1919 37.8207 66.1919 37.9467 66.1779C38.0727 66.1779 38.1847 66.1779 38.2827 66.1639L40.2007 69.7759H42.0907L39.7807 65.7159C40.8867 65.1839 41.5727 64.1759 41.5727 62.9579C41.5727 60.6899 39.6967 59.8359 37.7367 59.8359H34.7407V69.7759ZM36.4207 61.3199H37.7087C38.8147 61.3199 39.8367 61.7679 39.8367 63.0139C39.8367 64.2739 38.7587 64.7079 37.6527 64.7079C37.2607 64.7079 36.8127 64.6939 36.4207 64.6099V61.3199ZM42.933 67.6899C42.933 69.1459 44.179 69.9859 45.523 69.9859C46.419 69.9859 47.315 69.6219 47.777 68.8099L47.833 69.7759H49.303V65.3099C49.303 63.4619 48.015 62.2439 46.223 62.2439C44.921 62.2439 43.563 62.9439 43.199 64.2599L44.683 64.5959C44.935 63.9659 45.523 63.5879 46.195 63.5879C47.189 63.5879 47.707 64.3159 47.707 65.2399V65.7019C47.133 65.4639 46.531 65.3519 45.915 65.3519C44.445 65.3519 42.933 66.0519 42.933 67.6899ZM44.557 67.6199C44.557 66.7659 45.467 66.4859 46.167 66.4859C46.433 66.4859 46.699 66.5139 46.965 66.5699C47.217 66.6399 47.469 66.7239 47.707 66.8219V66.9899C47.707 68.0119 46.881 68.6979 45.901 68.6979C45.243 68.6979 44.557 68.3479 44.557 67.6199ZM50.1726 62.4539V63.7559H51.4606V67.5219C51.4606 69.0339 52.2866 69.9859 53.8266 69.9859C54.1486 69.9859 54.4566 69.9439 54.7506 69.8599C55.0306 69.7619 55.2826 69.6499 55.4926 69.4959L55.1286 68.2779C54.9606 68.3759 54.7786 68.4459 54.5826 68.4879C54.3866 68.5439 54.2046 68.5719 54.0366 68.5719C53.3226 68.5719 53.0706 67.9839 53.0706 67.3539V63.7559H55.1986V62.4539H53.0706V59.9759H51.4606V62.4539H50.1726ZM58.3735 69.7759V62.4539H56.7635V69.7759H58.3735ZM56.7215 60.8999C56.8055 61.0539 56.9175 61.1659 57.0715 61.2499C57.2255 61.3479 57.3795 61.3899 57.5615 61.3899C57.7435 61.3899 57.8975 61.3479 58.0515 61.2499C58.2055 61.1659 58.3175 61.0539 58.4155 60.8999C58.4995 60.7459 58.5415 60.5919 58.5415 60.4099C58.5415 60.2279 58.4995 60.0739 58.4155 59.9199C58.3175 59.7659 58.2055 59.6539 58.0515 59.5559C57.8975 59.4719 57.7435 59.4299 57.5615 59.4299C57.3795 59.4299 57.2255 59.4719 57.0715 59.5559C56.9175 59.6539 56.8055 59.7659 56.7215 59.9199C56.6235 60.0739 56.5815 60.2279 56.5815 60.4099C56.5815 60.5919 56.6235 60.7459 56.7215 60.8999ZM60.1131 62.4539V69.7759H61.7231V65.5199C61.7231 64.4839 62.4371 63.6999 63.4731 63.6999C64.5931 63.6999 64.9851 64.6099 64.9851 65.6039V69.7759H66.5951V65.4219C66.5951 63.6999 65.6991 62.2439 63.8791 62.2439C62.9691 62.2439 62.0871 62.6499 61.6391 63.4619L61.5831 62.4539H60.1131ZM68.0079 65.9679C68.0079 67.9279 69.3659 69.6359 71.3819 69.6359C72.3339 69.6359 73.2019 69.2159 73.7619 68.4319V69.1319C73.7619 70.4199 73.0199 71.3439 71.7179 71.3439C70.9199 71.3439 70.3319 70.9939 69.9119 70.3219L68.3859 70.8539C69.0579 72.1139 70.2479 72.7579 71.6619 72.7579C73.9579 72.7579 75.3719 71.2039 75.3719 69.0059V62.4539H73.9019L73.8459 63.4899C73.3139 62.6639 72.4459 62.2439 71.4659 62.2439C69.3799 62.2439 68.0079 64.0079 68.0079 65.9679ZM71.7179 63.6999C72.9919 63.6999 73.7899 64.7359 73.7899 65.9399C73.7899 67.1579 72.9639 68.1799 71.7179 68.1799C70.4719 68.1799 69.6599 67.1159 69.6599 65.9399C69.6599 64.7359 70.4859 63.6999 71.7179 63.6999Z" fill="#253A4A"/>
<path d="M61.6302 0H48.3182C46.7433 0 45.4656 1.27642 45.4656 2.84968V27.5469C45.4656 29.1201 46.7433 30.3966 48.3182 30.3966H61.6302C63.2051 30.3966 64.4828 29.1201 64.4828 27.5469V2.84968C64.4828 1.27642 63.2051 0 61.6302 0ZM54.9742 28.4968C53.9223 28.4968 53.0725 27.6478 53.0725 26.597C53.0725 25.5462 53.9223 24.6972 54.9742 24.6972C56.0261 24.6972 56.8759 25.5462 56.8759 26.597C56.8759 27.6478 56.0261 28.4968 54.9742 28.4968ZM61.6302 22.085C61.6302 22.4768 61.3093 22.7974 60.9171 22.7974H49.0313C48.6391 22.7974 48.3182 22.4768 48.3182 22.085V3.5621C48.3182 3.17027 48.6391 2.84968 49.0313 2.84968H60.9171C61.3093 2.84968 61.6302 3.17027 61.6302 3.5621V22.085Z" fill="#6599FF"/>
</svg>
