<svg id="Layer_1" data-name="Layer 1" xmlns="http://www.w3.org/2000/svg" viewBox="0 0 701.16 343.32"><defs><style>.cls-1,.cls-3{fill:#1565c0;}.cls-1,.cls-2{stroke:#1d1d1b;stroke-miterlimit:10;}.cls-2,.cls-6{fill:#9295a0;}.cls-4{fill:#1d1d1b;}.cls-5{fill:#f5965b;}</style></defs><path class="cls-1" d="M930.83,591.09c-22.25,4.56-44.35,10-66.76,13.49-41.77,6.41-80.18-9.3-119.19-20.17-43-12-85.77-25.2-128.92-36.79-63.67-17.1-128.24-11.44-192.54-4.82-42.37,4.35-84.52,10.76-127.59,13.78C315.1,551,334.05,543.65,353.69,540c52.9-9.71,105.85-20,159.24-26.06,65.09-7.43,127,11.06,188,31.25,27.5,9.1,55.18,17.86,82,28.7,53.56,21.66,107.53,17,162,5.37a83.27,83.27,0,0,1,18-2.17c-30.63,23.26-65,38.45-101.61,48.93-49.48,14.16-98.58,10.6-147.16-4.43-23.78-7.36-48-14-70.77-23.83C572,567.06,499.23,562.68,424.17,581.49c-38.78,9.71-78.11,17.27-117.83,23.65,10.84-3.68,21.51-8,32.55-10.93C385,582,431,569.19,477.51,558.59c45.24-10.32,89.85-4.47,133.6,10.35,46.66,15.8,93,32.77,140.48,45.78C813.79,631.78,873.17,616.74,930.83,591.09Z" transform="translate(-272.13 -416.99)"/><path class="cls-1" d="M272.8,557.44c6.36-15.23,10.53-32,19.85-45.15,6.19-8.73,19.62-17,30-17.25,39.29-.82,70.93-18.79,104.93-35.61,105.67-52.28,213.34-58.92,320.39-1.5,3.13,1.68,6.52,3.17,9.12,5.5,36.74,32.92,82.09,40.24,128.8,43.58,14.2,1,28.38,2.45,42.6,2.91,31.18,1,46.4,17.86,44.08,52.32-2.07-7.4-3.37-12.5-4.94-17.51-6.89-22.07-14.68-27.06-37.23-28.12-38.06-1.79-76.17-3.77-114-7.64a80.91,80.91,0,0,1-36.57-13.6c-105-73.39-214.61-66.1-326.72-20-7.05,2.9-14.46,5.42-20.77,9.55-31.8,20.84-65.95,30.4-104.16,25-18.43-2.59-29,9.14-37,23.93-4.54,8.43-9.25,16.78-13.88,25.16Z" transform="translate(-272.13 -416.99)"/><path class="cls-2" d="M588.25,505.79V467.41c55.4-3.21,105.6,12.64,153.75,38.38Z" transform="translate(-272.13 -416.99)"/><path class="cls-2" d="M576.76,466.48c0,12.15.51,22.23-.33,32.2-.23,2.81-4.37,7.56-6.77,7.6-32.77.51-65.54.34-98.71-1.84C500.16,475.91,537.93,473.21,576.76,466.48Z" transform="translate(-272.13 -416.99)"/><path class="cls-3" d="M340.52,702.94l11.39,11.39c-5.16,6.91-14,12.95-27.88,12.95-20.23,0-36.5-14.57-36.5-36.49s16.66-36.8,36.3-36.8c12.73,0,21.15,5,26.35,11.08L339,676.24c-2.64-3.66-7.3-7-15.17-7-9.42,0-20,6.74-20,21.52,0,13.19,9.72,20.83,20.23,20.83C333,711.62,337.94,707.26,340.52,702.94ZM322.3,688.66h34v14.28h-34Z" transform="translate(-272.13 -416.99)"/><path class="cls-4" d="M324,727.78c-21.44,0-37-15.56-37-37,0-21.26,15.82-37.3,36.8-37.3,14.2,0,22.38,6.12,26.73,11.26l.3.35L338.94,677l-.34-.47c-2.23-3.09-6.6-6.77-14.77-6.77-9.41,0-19.53,6.57-19.53,21,0,13.34,9.93,20.33,19.73,20.33,8.52,0,13.14-4,15.58-7.68H321.8V688.16h35v15.28H341.73l10.84,10.85-.26.34C347.82,720.63,339.27,727.78,324,727.78Zm-.2-73.29c-20.41,0-35.8,15.61-35.8,36.3,0,20.85,15.14,36,36,36,14.53,0,22.8-6.66,27.22-12.4l-10.64-10.64c-2.53,4-7.42,8.38-16.58,8.38-10.3,0-20.73-7.33-20.73-21.33,0-14.46,10.33-22,20.53-22,8.19,0,12.77,3.54,15.23,6.71L349.5,665C345.21,660.15,337.33,654.49,323.83,654.49Zm16.9,48H355.8V689.16h-33v13.28h17.43l.19-.31Z" transform="translate(-272.13 -416.99)"/><path class="cls-3" d="M465.72,690.64c0,22.21-16.76,36.59-36.49,36.59s-36.6-14.38-36.6-36.59c0,0,0-.07,0-.1H408.9c0,14.68,10.51,21.22,20.33,21.22s20.23-6.54,20.23-21.22S439,669.22,429.23,669.22s-20.33,6.64-20.33,21.32l-13.78-13.82c5.35-14.18,18.79-22.78,34.11-22.78C449,653.94,465.72,668.32,465.72,690.64Z" transform="translate(-272.13 -416.99)"/><path class="cls-4" d="M429.23,727.73c-21.15,0-37.1-15.94-37.1-37.09l0-.59h15.54l-13.15-13.2.11-.3c5.29-14,18.87-23.1,34.58-23.1,21.09,0,37,16,37,37.2S450.32,727.73,429.23,727.73ZM393.13,691c.19,20.71,15.31,35.69,36.1,35.69,20.52,0,36-15.51,36-36.09,0-21-15.14-36.2-36-36.2-15.18,0-28.3,8.69-33.53,22.15l12.72,12.76c.56-14.16,11-20.63,20.81-20.63,10,0,20.73,6.83,20.73,21.82s-10.75,21.72-20.73,21.72S408.64,705.62,408.4,691Zm16.27-.5c0,14.24,10.28,20.72,19.83,20.72S449,704.78,449,690.54s-10.23-20.82-19.73-20.82S409.4,676.23,409.4,690.54Z" transform="translate(-272.13 -416.99)"/><path class="cls-3" d="M575.55,690.64c0,22.21-16.76,36.59-36.5,36.59s-36.6-14.38-36.6-36.59c0,0,0-.07,0-.1h16.26c0,14.68,10.51,21.22,20.33,21.22s20.23-6.54,20.23-21.22-10.51-21.32-20.23-21.32-20.33,6.64-20.33,21.32l-13.78-13.82c5.35-14.18,18.8-22.78,34.11-22.78C558.79,653.94,575.55,668.32,575.55,690.64Z" transform="translate(-272.13 -416.99)"/><path class="cls-4" d="M539.05,727.73c-21.15,0-37.1-15.94-37.1-37.09l0-.59h15.54l-13.16-13.2.12-.3c5.29-14,18.86-23.1,34.57-23.1,21.09,0,37,16,37,37.2S560.14,727.73,539.05,727.73ZM503,691c.19,20.71,15.31,35.69,36.09,35.69,20.52,0,36-15.51,36-36.09,0-21-15.14-36.2-36-36.2-15.18,0-28.3,8.69-33.52,22.15l12.71,12.76c.56-14.16,11-20.63,20.81-20.63,10,0,20.73,6.83,20.73,21.82S549,712.26,539.05,712.26s-20.59-6.64-20.83-21.22Zm16.26-.5c0,14.24,10.28,20.72,19.83,20.72s19.73-6.48,19.73-20.72-10.23-20.82-19.73-20.82S519.22,676.23,519.22,690.54Z" transform="translate(-272.13 -416.99)"/><path class="cls-3" d="M676,690.69c0,21.72-14.19,35.11-35.41,35.11H615.19V686l15.67-15.72V711H640c10.81,0,19.63-6.25,19.63-20.33S650.8,670.26,640,670.26h-24.8V655.48h25.49C661.8,655.48,676,669,676,690.69Z" transform="translate(-272.13 -416.99)"/><path class="cls-4" d="M640.58,726.3H614.69V685.77l.15-.15,14.82-14.86h-15V655h26c21.75,0,35.81,14,35.81,35.71S662.39,726.3,640.58,726.3Zm-24.89-1h24.89c21.21,0,34.91-13.59,34.91-34.61S661.83,656,640.68,656h-25v13.78h15l.71-.71v.71H640c9.73,0,20.13,5.49,20.13,20.93,0,13-7.52,20.83-20.13,20.83h-9.63v-40l-14.67,14.71Zm15.67-14.78H640c12,0,19.13-7.42,19.13-19.83S652,670.76,640,670.76h-8.63Z" transform="translate(-272.13 -416.99)"/><path class="cls-5" d="M777.64,714.33c-5.17,6.91-14,12.95-27.89,12.95-20.23,0-36.49-14.57-36.49-36.49s16.66-36.8,36.3-36.8c12.73,0,21.14,4.94,26.35,11.08l-11.18,11.17c-2.64-3.66-7.31-7-15.17-7-9.42,0-20,6.74-20,21.52,0,13.19,9.71,20.83,20.23,20.83,8.93,0,13.91-4.36,16.49-8.68Z" transform="translate(-272.13 -416.99)"/><path class="cls-4" d="M749.75,727.78c-21.43,0-37-15.56-37-37,0-21.26,15.82-37.3,36.8-37.3,14.2,0,22.37,6.12,26.73,11.26l.29.35L764.67,677l-.34-.47c-2.23-3.09-6.61-6.77-14.77-6.77-9.41,0-19.53,6.57-19.53,21,0,13.34,9.92,20.33,19.73,20.33,9.11,0,13.76-4.59,16.07-8.43l.32-.55,12.15,12.15-.26.34C773.55,720.63,765,727.78,749.75,727.78Zm-.19-73.29c-20.41,0-35.8,15.61-35.8,36.3,0,20.85,15.14,36,36,36,14.54,0,22.81-6.66,27.23-12.4l-10.63-10.64c-2.54,4-7.44,8.38-16.59,8.38-10.3,0-20.73-7.33-20.73-21.33,0-14.46,10.33-22,20.53-22,8.18,0,12.76,3.54,15.23,6.71L775.22,665C770.94,660.15,763.06,654.49,749.56,654.49Z" transform="translate(-272.13 -416.99)"/><path class="cls-5" d="M881.23,725.8H864.18l-5.06-14.29H832l-5.06,14.29H810.42l26.48-70.32h18.15l11.08,29.75-12,12-8.43-24.3-8.63,24.3h33.5Z" transform="translate(-272.13 -416.99)"/><path class="cls-4" d="M882,726.3H863.82L858.77,712H832.3l-5.06,14.29H809.7L836.56,655H855.4l11.31,30.37-11.35,11.38h15.58Zm-17.42-1h16l-10.26-27.57H854.37l-.42.42-.15-.42H836.39l9.34-26.31,8.64,24.89,11.18-11.21L854.7,656H837.25L811.14,725.3h15.39L831.59,711h27.88Zm-26.72-28.57h15.65l-7.74-22.29Z" transform="translate(-272.13 -416.99)"/><path class="cls-5" d="M955,697.28l14.28,28.47H952.05l-12.59-26.19H933.9v26.19H918.23v-41L933.9,669v17.05h9.23c6.44,0,9.91-3.56,9.91-8.52,0-5.26-3.47-8.53-9.91-8.53h-24.9V655.43H946.1c13.89,0,22.81,9.52,22.81,22C968.91,687,963.66,694.21,955,697.28Z" transform="translate(-272.13 -416.99)"/><path class="cls-4" d="M970.12,726.25H951.74l-12.6-26.19H934.4v26.19H917.73V684.53l15-15h-15V654.93H946.1c13.73,0,23.31,9.26,23.31,22.52,0,9.35-5.1,16.83-13.68,20.11Zm-17.75-1H968.5L954.33,697l.53-.19c8.61-3.07,13.55-10.13,13.55-19.36,0-12.67-9.17-21.52-22.31-21.52H918.73v12.59h15l.7-.71v.71h8.73c6.52,0,10.41,3.37,10.41,9s-4,9-10.41,9H933.4V670.23l-14.67,14.71v40.31H933.4V699.06h6.37Zm-18-39.68h8.73c5.81,0,9.41-3.07,9.41-8,0-5.11-3.43-8-9.41-8H934.4Z" transform="translate(-272.13 -416.99)"/><path class="cls-6" d="M361.69,745.76v3a7.49,7.49,0,0,1-.75,3.42,5.54,5.54,0,0,1-2.14,2.28,6.21,6.21,0,0,1-3.2.81,6.63,6.63,0,0,1-3.24-.76,5.32,5.32,0,0,1-2.16-2.15,6.55,6.55,0,0,1-.76-3.22v-5.13a7.41,7.41,0,0,1,.75-3.41,5.42,5.42,0,0,1,2.14-2.28,6.19,6.19,0,0,1,3.2-.81,6,6,0,0,1,2.76.64A5.92,5.92,0,0,1,360.4,740a6.92,6.92,0,0,1,1.15,2.72H358.9a3.76,3.76,0,0,0-.73-1.5,3.39,3.39,0,0,0-1.21-1,3.29,3.29,0,0,0-1.43-.33,3.39,3.39,0,0,0-1.89.52,3.28,3.28,0,0,0-1.26,1.44,4.9,4.9,0,0,0-.44,2.16v5.13a4.12,4.12,0,0,0,.45,2,3.19,3.19,0,0,0,1.29,1.31,3.85,3.85,0,0,0,1.92.47,3.55,3.55,0,0,0,1.89-.49,3.24,3.24,0,0,0,1.26-1.4,5.12,5.12,0,0,0,.44-2.19v-.76h-3.53v-2.33Z" transform="translate(-272.13 -416.99)"/><path class="cls-6" d="M368.71,742.71h2.44v12.42h-2.44Zm6,2.34a3.09,3.09,0,0,0-1.14-.2,2.43,2.43,0,0,0-1.8.64,2.4,2.4,0,0,0-.64,1.78l-.25-2.4a4.67,4.67,0,0,1,1.48-1.73,3.52,3.52,0,0,1,2-.61,4.65,4.65,0,0,1,1.54.24,3.49,3.49,0,0,1,1.2.73l-1.59,2.15A2,2,0,0,0,374.73,745.05Z" transform="translate(-272.13 -416.99)"/><path class="cls-6" d="M384.38,754.66a4.35,4.35,0,0,1-1.86-1.89,6.55,6.55,0,0,1-.64-3v-1.4a7.18,7.18,0,0,1,.62-3.14,4.38,4.38,0,0,1,1.78-2,5.62,5.62,0,0,1,2.83-.68,4.49,4.49,0,0,1,2.66.78,4.79,4.79,0,0,1,1.68,2.25,9.73,9.73,0,0,1,.58,3.53v.81h-8.38v-2h6.06a4.27,4.27,0,0,0-.79-2.37,2.2,2.2,0,0,0-1.81-.84,2.64,2.64,0,0,0-2.15.91,3.88,3.88,0,0,0-.76,2.57v1.58a3.24,3.24,0,0,0,.81,2.37,3.13,3.13,0,0,0,2.31.83,3.88,3.88,0,0,0,1.48-.3,4.27,4.27,0,0,0,1.3-.84l1.6,1.6a6.82,6.82,0,0,1-2.07,1.38,5.9,5.9,0,0,1-2.31.48A6.23,6.23,0,0,1,384.38,754.66Z" transform="translate(-272.13 -416.99)"/><path class="cls-6" d="M399.23,754.36a4.22,4.22,0,0,1-.1-5.66,4.65,4.65,0,0,1,3.15-.92h3.53l.17,2h-3.69a2.09,2.09,0,0,0-1.43.43,1.64,1.64,0,0,0-.47,1.3,1.62,1.62,0,0,0,.63,1.4,3.25,3.25,0,0,0,1.9.45A5.49,5.49,0,0,0,405,753a1,1,0,0,0,.69-.93l.25,1.75a2.81,2.81,0,0,1-.79.82,3.45,3.45,0,0,1-1.1.49,5.44,5.44,0,0,1-1.4.16A5.26,5.26,0,0,1,399.23,754.36Zm6.47-7.11a2.63,2.63,0,0,0-.65-1.89,2.46,2.46,0,0,0-1.85-.68,4.73,4.73,0,0,0-1.45.23,4.31,4.31,0,0,0-1.27.63l-1.78-1.22a4.76,4.76,0,0,1,1.86-1.32,6.84,6.84,0,0,1,2.57-.47,5.92,5.92,0,0,1,2.64.54,3.84,3.84,0,0,1,1.68,1.58,5.1,5.1,0,0,1,.57,2.5v8H405.7Z" transform="translate(-272.13 -416.99)"/><path class="cls-6" d="M414.08,742.71h5.6v2.2h-5.6Zm2,11.65a3.8,3.8,0,0,1-.7-2.46V739.09h2.45v12.83a1.22,1.22,0,0,0,.17.7.61.61,0,0,0,.53.25h1.17v2.32h-1.41A2.76,2.76,0,0,1,416.06,754.36Z" transform="translate(-272.13 -416.99)"/><path class="cls-6" d="M434.68,737.73h2.66l4.17,13.64,4.18-13.64h2.66l-5.68,17.4h-2.32Z" transform="translate(-272.13 -416.99)"/><path class="cls-6" d="M453.87,754.36a4.22,4.22,0,0,1-.1-5.66,4.68,4.68,0,0,1,3.15-.92h3.53l.17,2h-3.69a2.11,2.11,0,0,0-1.43.43,1.68,1.68,0,0,0-.47,1.3,1.62,1.62,0,0,0,.63,1.4,3.28,3.28,0,0,0,1.91.45,5.44,5.44,0,0,0,2.08-.3,1,1,0,0,0,.69-.93l.25,1.75a2.81,2.81,0,0,1-.79.82,3.45,3.45,0,0,1-1.1.49,5.44,5.44,0,0,1-1.4.16A5.28,5.28,0,0,1,453.87,754.36Zm6.47-7.11a2.58,2.58,0,0,0-.65-1.89,2.45,2.45,0,0,0-1.85-.68,4.78,4.78,0,0,0-1.45.23,4.14,4.14,0,0,0-1.26.63l-1.79-1.22A4.76,4.76,0,0,1,455.2,743a6.84,6.84,0,0,1,2.57-.47,5.92,5.92,0,0,1,2.64.54,3.78,3.78,0,0,1,1.68,1.58,5.1,5.1,0,0,1,.57,2.5v8h-2.32Z" transform="translate(-272.13 -416.99)"/><path class="cls-6" d="M472.12,751.92a1.08,1.08,0,0,0,.2.7.66.66,0,0,0,.56.25H474v2.32h-1.44a2.74,2.74,0,0,1-2.15-.86,3.61,3.61,0,0,1-.76-2.43V737.73h2.44Z" transform="translate(-272.13 -416.99)"/><path class="cls-6" d="M482.41,750.26a2.83,2.83,0,0,0,.67,2A2.43,2.43,0,0,0,485,753a2.52,2.52,0,0,0,1.85-.64,2.37,2.37,0,0,0,.66-1.8l.17,2.59a3.6,3.6,0,0,1-1.25,1.55,3.54,3.54,0,0,1-2.11.62,3.92,3.92,0,0,1-3.18-1.32,5.59,5.59,0,0,1-1.12-3.73v-7.55h2.44Zm5-7.55h2.43v12.42h-2.43Z" transform="translate(-272.13 -416.99)"/><path class="cls-6" d="M499.05,754.66a4.35,4.35,0,0,1-1.86-1.89,6.55,6.55,0,0,1-.64-3v-1.4a7.33,7.33,0,0,1,.62-3.14,4.34,4.34,0,0,1,1.79-2,5.55,5.55,0,0,1,2.82-.68,4.49,4.49,0,0,1,2.66.78,4.79,4.79,0,0,1,1.68,2.25,9.53,9.53,0,0,1,.58,3.53v.81h-8.38v-2h6.06a4.2,4.2,0,0,0-.79-2.37,2.2,2.2,0,0,0-1.81-.84,2.64,2.64,0,0,0-2.15.91,3.94,3.94,0,0,0-.76,2.57v1.58a3.21,3.21,0,0,0,.82,2.37A3.09,3.09,0,0,0,502,753a3.86,3.86,0,0,0,1.47-.3,4.27,4.27,0,0,0,1.3-.84l1.61,1.6a7.07,7.07,0,0,1-2.07,1.38,6,6,0,0,1-2.31.48A6.27,6.27,0,0,1,499.05,754.66Z" transform="translate(-272.13 -416.99)"/><path class="cls-6" d="M523.49,735.67h2.44v21.52h-2.44Z" transform="translate(-272.13 -416.99)"/><path class="cls-6" d="M541,737.73h12.28v2.32H541Zm4.92,1.42h2.44v16H546Z" transform="translate(-272.13 -416.99)"/><path class="cls-6" d="M557.35,742.71h2.44v12.42h-2.44Zm6,2.34a3.09,3.09,0,0,0-1.14-.2,2.43,2.43,0,0,0-1.8.64,2.4,2.4,0,0,0-.64,1.78l-.25-2.4a4.67,4.67,0,0,1,1.48-1.73,3.53,3.53,0,0,1,2-.61,4.63,4.63,0,0,1,1.53.24,3.63,3.63,0,0,1,1.21.73l-1.6,2.15A2,2,0,0,0,563.37,745.05Z" transform="translate(-272.13 -416.99)"/><path class="cls-6" d="M573.56,750.26a2.87,2.87,0,0,0,.66,2,2.47,2.47,0,0,0,1.88.71,2.54,2.54,0,0,0,1.85-.64,2.37,2.37,0,0,0,.66-1.8l.17,2.59a3.6,3.6,0,0,1-1.25,1.55,3.55,3.55,0,0,1-2.12.62,3.92,3.92,0,0,1-3.17-1.32,5.59,5.59,0,0,1-1.12-3.73v-7.55h2.44Zm5.05-7.55H581v12.42h-2.43Z" transform="translate(-272.13 -416.99)"/><path class="cls-6" d="M590.39,755.09a7,7,0,0,1-1.8-.64,7.18,7.18,0,0,1-1.55-1.08l1.45-1.78a8.4,8.4,0,0,0,2,1.15,5.5,5.5,0,0,0,2,.38,4.16,4.16,0,0,0,2.17-.45,1.48,1.48,0,0,0,.73-1.35,1.06,1.06,0,0,0-.4-.89,2.12,2.12,0,0,0-1-.4c-.39-.07-.94-.13-1.65-.19h-.6a9.54,9.54,0,0,1-2.05-.35,2.79,2.79,0,0,1-1.39-1,3.22,3.22,0,0,1-.56-2,4.09,4.09,0,0,1,.54-2.19,3.32,3.32,0,0,1,1.61-1.32,7.05,7.05,0,0,1,2.66-.43,9.14,9.14,0,0,1,1.85.18,7.83,7.83,0,0,1,1.68.53,8.61,8.61,0,0,1,1.55.89l-1.47,1.78a8.83,8.83,0,0,0-1.84-.89,5.58,5.58,0,0,0-1.77-.3,3.32,3.32,0,0,0-1.86.42,1.45,1.45,0,0,0-.63,1.28.86.86,0,0,0,.36.75,2,2,0,0,0,.89.34c.36,0,.87.1,1.53.14h.38l.08,0a10.61,10.61,0,0,1,2.22.34,3,3,0,0,1,1.53,1,3.51,3.51,0,0,1,.63,2.25,4,4,0,0,1-.58,2.22,3.48,3.48,0,0,1-1.73,1.33,8.27,8.27,0,0,1-2.9.44A9,9,0,0,1,590.39,755.09Z" transform="translate(-272.13 -416.99)"/><path class="cls-6" d="M603.12,742.71h5.6v2.2h-5.6Zm2,11.65a3.74,3.74,0,0,1-.7-2.46V739.09h2.44v12.83a1.15,1.15,0,0,0,.18.7.61.61,0,0,0,.53.25h1.17v2.32h-1.41A2.74,2.74,0,0,1,605.1,754.36Z" transform="translate(-272.13 -416.99)"/><path class="cls-6" d="M617.52,754.66a4.35,4.35,0,0,1-1.86-1.89,6.55,6.55,0,0,1-.64-3v-1.4a7.33,7.33,0,0,1,.62-3.14,4.34,4.34,0,0,1,1.79-2,5.55,5.55,0,0,1,2.82-.68,4.49,4.49,0,0,1,2.66.78,4.79,4.79,0,0,1,1.68,2.25,9.53,9.53,0,0,1,.58,3.53v.81h-8.38v-2h6.06a4.2,4.2,0,0,0-.79-2.37,2.2,2.2,0,0,0-1.81-.84,2.65,2.65,0,0,0-2.15.91,3.94,3.94,0,0,0-.76,2.57v1.58a3.21,3.21,0,0,0,.82,2.37,3.09,3.09,0,0,0,2.31.83,3.86,3.86,0,0,0,1.47-.3,4.27,4.27,0,0,0,1.3-.84l1.61,1.6a7.07,7.07,0,0,1-2.07,1.38,6,6,0,0,1-2.31.48A6.27,6.27,0,0,1,617.52,754.66Z" transform="translate(-272.13 -416.99)"/><path class="cls-6" d="M633.44,754.75A3.75,3.75,0,0,1,632,753a6.76,6.76,0,0,1-.5-2.73v-2.74a6.88,6.88,0,0,1,.49-2.74,3.78,3.78,0,0,1,1.43-1.73,4.2,4.2,0,0,1,2.26-.59,3.65,3.65,0,0,1,2,.58,4.2,4.2,0,0,1,1.48,1.61l-.25,2.54a2.93,2.93,0,0,0-.29-1.35,2,2,0,0,0-.83-.86,2.8,2.8,0,0,0-1.32-.29,2.35,2.35,0,0,0-1.87.75,3.06,3.06,0,0,0-.67,2.12v2.7a3,3,0,0,0,.67,2.09,2.38,2.38,0,0,0,1.87.74,2.58,2.58,0,0,0,1.32-.31,2,2,0,0,0,.83-.88,3,3,0,0,0,.29-1.37l.17,2.62a3.5,3.5,0,0,1-1.22,1.54,3.35,3.35,0,0,1-2.07.63A4.32,4.32,0,0,1,633.44,754.75Zm5.45-17h2.44v17.4h-2.44Z" transform="translate(-272.13 -416.99)"/><path class="cls-6" d="M661,754.51a5.43,5.43,0,0,1-2.15-2.25,7.13,7.13,0,0,1-.76-3.37V744a7.09,7.09,0,0,1,.76-3.36,5.43,5.43,0,0,1,2.15-2.25,6.82,6.82,0,0,1,6.41,0,5.37,5.37,0,0,1,2.15,2.25,7.09,7.09,0,0,1,.76,3.36v4.93a7.13,7.13,0,0,1-.76,3.37,5.37,5.37,0,0,1-2.15,2.25,6.82,6.82,0,0,1-6.41,0Zm5.1-2.09A3.21,3.21,0,0,0,667.4,751a4.5,4.5,0,0,0,.45-2.06v-5.1a4.5,4.5,0,0,0-.45-2.06,3.21,3.21,0,0,0-1.27-1.38,3.66,3.66,0,0,0-1.89-.48,3.7,3.7,0,0,0-1.9.48,3.21,3.21,0,0,0-1.27,1.38,4.5,4.5,0,0,0-.45,2.06V749a4.5,4.5,0,0,0,.45,2.06,3.21,3.21,0,0,0,1.27,1.38,3.7,3.7,0,0,0,1.9.48A3.66,3.66,0,0,0,666.13,752.42Zm-1.93-2.11,1.27-1.62,6.49,5.1-1.27,1.63Z" transform="translate(-272.13 -416.99)"/><path class="cls-6" d="M680,750.26a2.87,2.87,0,0,0,.66,2,2.47,2.47,0,0,0,1.88.71,2.54,2.54,0,0,0,1.85-.64,2.37,2.37,0,0,0,.66-1.8l.17,2.59a3.6,3.6,0,0,1-1.25,1.55,3.55,3.55,0,0,1-2.12.62,3.92,3.92,0,0,1-3.17-1.32,5.59,5.59,0,0,1-1.12-3.73v-7.55H680Zm5-7.55h2.43v12.42H685Z" transform="translate(-272.13 -416.99)"/><path class="cls-6" d="M695,754.36a4.22,4.22,0,0,1-.1-5.66,4.65,4.65,0,0,1,3.15-.92h3.53l.17,2h-3.69a2.09,2.09,0,0,0-1.43.43,2,2,0,0,0,.15,2.7,3.3,3.3,0,0,0,1.91.45,5.49,5.49,0,0,0,2.09-.3,1,1,0,0,0,.69-.93l.25,1.75a2.81,2.81,0,0,1-.79.82,3.45,3.45,0,0,1-1.1.49,5.44,5.44,0,0,1-1.4.16A5.26,5.26,0,0,1,695,754.36Zm6.47-7.11a2.63,2.63,0,0,0-.65-1.89,2.46,2.46,0,0,0-1.85-.68,4.73,4.73,0,0,0-1.45.23,4.31,4.31,0,0,0-1.27.63l-1.78-1.22a4.76,4.76,0,0,1,1.86-1.32,6.84,6.84,0,0,1,2.57-.47,5.92,5.92,0,0,1,2.64.54,3.84,3.84,0,0,1,1.68,1.58,5.1,5.1,0,0,1,.57,2.5v8h-2.32Z" transform="translate(-272.13 -416.99)"/><path class="cls-6" d="M713.27,751.92a1.08,1.08,0,0,0,.2.7.66.66,0,0,0,.56.25h1.14v2.32h-1.43a2.73,2.73,0,0,1-2.15-.86,3.56,3.56,0,0,1-.76-2.43V737.73h2.44Z" transform="translate(-272.13 -416.99)"/><path class="cls-6" d="M721.24,737.73h2.44v2.44h-2.44Zm0,5h2.44v12.42h-2.44Z" transform="translate(-272.13 -416.99)"/><path class="cls-6" d="M729.74,742.71h5.6v2.2h-5.6Zm2,11.65a3.74,3.74,0,0,1-.7-2.46V739.09h2.44v12.83a1.15,1.15,0,0,0,.18.7.61.61,0,0,0,.53.25h1.17v2.32h-1.41A2.74,2.74,0,0,1,731.72,754.36Z" transform="translate(-272.13 -416.99)"/><path class="cls-6" d="M740.68,742.71h2.49L747,753.5l-1.35,2.65Zm11,0L746.39,758a3.65,3.65,0,0,1-.75,1.34,2.75,2.75,0,0,1-1.15.72,5.78,5.78,0,0,1-1.68.21h-.49V758h.49a1.93,1.93,0,0,0,1.09-.28,2.26,2.26,0,0,0,.7-.94l4.59-14Z" transform="translate(-272.13 -416.99)"/><path class="cls-6" d="M767.28,735.67h2.44v21.52h-2.44Z" transform="translate(-272.13 -416.99)"/><path class="cls-6" d="M792,737.73h2.09l6.41,17.4h-2.63l-4.83-14-4.82,14h-2.63ZM788.5,749h9.16v2.32H788.5Z" transform="translate(-272.13 -416.99)"/><path class="cls-6" d="M808.6,751.92a1.08,1.08,0,0,0,.2.7.66.66,0,0,0,.56.25h1.15v2.32h-1.44a2.74,2.74,0,0,1-2.15-.86,3.61,3.61,0,0,1-.76-2.43V737.73h2.44Z" transform="translate(-272.13 -416.99)"/><path class="cls-6" d="M819,751.92a1.08,1.08,0,0,0,.2.7.64.64,0,0,0,.55.25h1.15v2.32h-1.43a2.73,2.73,0,0,1-2.15-.86,3.56,3.56,0,0,1-.76-2.43V737.73H819Z" transform="translate(-272.13 -416.99)"/><path class="cls-6" d="M839.65,754.51a5.49,5.49,0,0,1-2.15-2.25,7.25,7.25,0,0,1-.75-3.37V744a7.2,7.2,0,0,1,.75-3.36,5.49,5.49,0,0,1,2.15-2.25,6.84,6.84,0,0,1,6.42,0,5.49,5.49,0,0,1,2.15,2.25A7.21,7.21,0,0,1,849,744v4.93a7.25,7.25,0,0,1-.76,3.37,5.49,5.49,0,0,1-2.15,2.25,6.84,6.84,0,0,1-6.42,0Zm5.11-2.09A3.27,3.27,0,0,0,846,751a4.49,4.49,0,0,0,.44-2.06v-5.1a4.49,4.49,0,0,0-.44-2.06,3.27,3.27,0,0,0-1.27-1.38,4,4,0,0,0-3.8,0,3.19,3.19,0,0,0-1.26,1.38,4.5,4.5,0,0,0-.45,2.06V749a4.5,4.5,0,0,0,.45,2.06,3.19,3.19,0,0,0,1.26,1.38,4,4,0,0,0,3.8,0Z" transform="translate(-272.13 -416.99)"/><path class="cls-6" d="M856,742.71h2.44v12.42H856Zm7.53,4.89a2.8,2.8,0,0,0-.68-2,2.5,2.5,0,0,0-1.91-.72,2.54,2.54,0,0,0-1.85.63,2.37,2.37,0,0,0-.65,1.79l-.26-2.4a4.43,4.43,0,0,1,1.51-1.73,3.6,3.6,0,0,1,2-.61,3.86,3.86,0,0,1,3.13,1.32,5.66,5.66,0,0,1,1.11,3.74v7.54h-2.45Z" transform="translate(-272.13 -416.99)"/><path class="cls-6" d="M875.44,751.92a1.08,1.08,0,0,0,.19.7.68.68,0,0,0,.56.25h1.15v2.32H875.9a2.74,2.74,0,0,1-2.15-.86,3.6,3.6,0,0,1-.75-2.43V737.73h2.44Z" transform="translate(-272.13 -416.99)"/><path class="cls-6" d="M883.4,737.73h2.44v2.44H883.4Zm0,5h2.44v12.42H883.4Z" transform="translate(-272.13 -416.99)"/><path class="cls-6" d="M892.86,742.71h2.44v12.42h-2.44Zm7.54,4.89a2.85,2.85,0,0,0-.68-2,2.53,2.53,0,0,0-1.92-.72,2.56,2.56,0,0,0-1.85.63,2.41,2.41,0,0,0-.65,1.79l-.25-2.4a4.33,4.33,0,0,1,1.5-1.73,3.63,3.63,0,0,1,2.05-.61,3.85,3.85,0,0,1,3.13,1.32,5.66,5.66,0,0,1,1.11,3.74v7.54H900.4Z" transform="translate(-272.13 -416.99)"/><path class="cls-6" d="M912,754.66a4.35,4.35,0,0,1-1.86-1.89,6.55,6.55,0,0,1-.64-3v-1.4a7.33,7.33,0,0,1,.62-3.14,4.4,4.4,0,0,1,1.79-2,5.55,5.55,0,0,1,2.82-.68,4.49,4.49,0,0,1,2.66.78,4.79,4.79,0,0,1,1.68,2.25,9.53,9.53,0,0,1,.58,3.53v.81h-8.38v-2h6.06a4.12,4.12,0,0,0-.79-2.37,2.2,2.2,0,0,0-1.81-.84,2.65,2.65,0,0,0-2.15.91,3.94,3.94,0,0,0-.76,2.57v1.58a3.21,3.21,0,0,0,.82,2.37A3.09,3.09,0,0,0,915,753a3.86,3.86,0,0,0,1.47-.3,4.15,4.15,0,0,0,1.3-.84l1.61,1.6a7.07,7.07,0,0,1-2.07,1.38,6,6,0,0,1-2.31.48A6.27,6.27,0,0,1,912,754.66Z" transform="translate(-272.13 -416.99)"/></svg>